<svg version="1.0" xmlns="http://www.w3.org/2000/svg"
 width="918.000" height="1280.000" viewBox="0.000 0.000 918.000 1280.000"
 preserveAspectRatio="xMidYMid meet">
<metadata>
Created by potrace 1.15, written by Peter Selinger 2001-2017
</metadata>
<g transform="translate(0.000000,1280.000000) scale(0.100000,-0.100000)"
fill="#000000" stroke="none">
<path d="M3387 12785 c-64 -22 -89 -53 -85 -102 2 -24 2 -43 0 -43 -2 0 -18
11 -35 24 -18 12 -40 26 -50 29 -25 9 -34 -20 -15 -53 l15 -27 -29 14 c-23 12
-32 12 -44 3 -19 -16 -10 -44 27 -92 l30 -38 -41 0 c-33 0 -47 -6 -69 -31 -37
-40 -51 -86 -58 -186 -5 -65 -2 -93 11 -128 31 -80 100 -109 144 -62 26 28 27
38 7 77 -9 18 -26 32 -43 36 -58 13 -62 15 -62 41 0 34 53 83 92 83 93 0 198
-139 198 -262 0 -62 -4 -66 -34 -43 -63 48 -121 -27 -81 -105 15 -29 15 -29
-16 -28 -60 2 -119 -70 -119 -144 0 -47 15 -56 45 -28 29 28 56 23 74 -14 12
-25 10 -41 -15 -145 -45 -189 -34 -310 41 -436 76 -131 167 -138 250 -21 70
98 100 220 76 305 -18 65 -86 40 -79 -29 3 -35 2 -35 -30 -32 -36 5 -66 -15
-75 -49 -4 -16 2 -24 29 -35 42 -18 43 -33 3 -79 -38 -43 -84 -48 -117 -12
-87 92 -33 311 114 463 66 68 112 94 169 94 19 0 35 4 35 9 0 5 -17 28 -39 52
-36 41 -42 44 -90 44 -28 0 -51 2 -51 4 0 2 14 20 30 41 50 63 81 142 87 224
5 68 4 74 -18 90 -27 18 -70 21 -86 5 -8 -8 -13 -2 -18 23 -11 51 -77 175
-139 261 l-56 79 42 -35 c65 -53 216 -146 259 -159 34 -10 37 -13 32 -39 -8
-42 24 -89 62 -89 40 0 141 49 184 88 39 37 41 38 34 13 -8 -33 18 -104 50
-134 l32 -29 11 55 c14 73 51 133 119 195 107 98 221 133 308 94 67 -30 76
-87 23 -145 -33 -35 -53 -34 -61 3 -9 42 -21 45 -51 15 -21 -21 -25 -33 -21
-59 5 -31 4 -32 -23 -28 -19 3 -35 -3 -50 -18 l-22 -22 20 -21 c14 -14 38 -22
76 -25 45 -4 64 0 113 24 68 34 136 93 153 134 38 92 -72 206 -229 239 -60 13
-86 10 -219 -26 -87 -23 -95 -23 -118 -9 -28 19 -31 51 -8 77 33 37 -16 52
-81 25 -38 -16 -65 -60 -65 -105 l0 -30 -28 16 c-60 34 -118 -17 -87 -77 8
-16 15 -31 15 -35 0 -14 -95 -3 -133 16 -49 24 -122 92 -143 131 -30 58 -7
138 40 138 19 0 25 -7 30 -34 8 -41 56 -86 92 -86 62 0 85 81 36 130 -47 46
-192 65 -275 35z"/>
<path d="M5585 12785 c-57 -15 -95 -53 -95 -95 0 -34 34 -70 66 -70 31 0 76
40 89 81 23 67 85 36 85 -42 0 -50 -48 -118 -116 -165 -45 -31 -66 -39 -114
-42 -33 -2 -60 -2 -60 0 0 3 7 19 15 35 32 64 -25 116 -87 80 l-28 -16 0 30
c0 42 -28 86 -66 104 -61 29 -113 13 -80 -24 23 -26 20 -58 -8 -77 -23 -14
-31 -14 -118 9 -133 36 -159 39 -219 26 -72 -15 -141 -51 -188 -98 -45 -45
-57 -86 -41 -136 23 -69 166 -165 247 -165 50 0 100 17 107 36 9 24 -32 57
-64 52 -27 -4 -28 -3 -23 28 4 26 0 38 -21 59 -30 30 -41 27 -49 -15 -8 -38
-30 -39 -68 -1 -38 39 -40 88 -3 124 67 68 216 37 332 -68 74 -67 110 -123
125 -196 l13 -63 35 36 c38 37 53 83 43 124 -9 34 1 30 57 -20 48 -43 120 -76
165 -76 33 0 67 48 61 86 -5 29 -3 32 32 43 46 13 195 106 263 163 l50 41 -56
-74 c-62 -83 -140 -227 -151 -277 -5 -25 -10 -31 -18 -23 -16 16 -59 13 -86
-5 -22 -16 -23 -22 -18 -83 6 -80 37 -167 82 -225 l33 -43 -52 -6 c-42 -5 -57
-13 -83 -42 -43 -45 -43 -65 -1 -65 86 0 199 -103 270 -246 39 -80 42 -92 43
-168 0 -89 -13 -127 -56 -159 -25 -18 -28 -18 -57 -3 -37 19 -74 64 -70 85 2
8 18 20 36 25 27 7 31 13 26 30 -11 36 -36 56 -69 56 -28 0 -32 3 -33 29 -2
73 -52 97 -78 36 -38 -91 7 -246 101 -342 44 -45 57 -53 88 -53 104 0 223 232
202 394 -4 28 -16 89 -27 136 -11 47 -20 102 -20 122 -1 65 36 87 78 47 29
-27 44 -17 44 29 0 74 -59 146 -119 144 -31 -1 -31 -1 -16 28 40 78 -18 153
-81 105 -30 -23 -34 -19 -34 43 0 126 104 262 200 262 43 0 93 -49 88 -87 -3
-24 -9 -29 -42 -34 -42 -7 -76 -38 -76 -69 0 -9 9 -29 21 -44 30 -39 73 -35
115 9 39 41 49 92 41 200 -9 126 -55 195 -128 195 l-42 0 20 23 c11 12 28 37
37 55 30 58 -14 79 -68 33 -17 -14 -17 -12 2 16 46 65 23 86 -45 40 l-50 -33
5 46 c4 42 1 49 -27 73 -56 47 -162 60 -266 32z"/>
<path d="M3353 10951 c-62 -38 -122 -153 -143 -274 -12 -66 -6 -121 35 -301
12 -56 13 -73 2 -94 -16 -35 -43 -39 -78 -13 l-29 21 -6 -25 c-18 -72 50 -175
115 -175 31 0 32 -1 17 -22 -28 -39 -16 -96 23 -117 13 -7 28 -5 54 9 l37 20
0 -53 c0 -72 -25 -141 -63 -173 -37 -31 -67 -28 -167 17 l-65 28 53 1 c46 0
54 3 64 25 24 54 -31 105 -91 84 -31 -11 -71 -63 -71 -92 0 -8 19 -27 43 -41
23 -14 58 -40 77 -57 29 -26 30 -28 8 -15 -32 19 -37 7 -8 -19 11 -10 20 -23
20 -28 0 -6 -13 2 -30 18 -32 30 -37 28 -19 -8 15 -31 -34 26 -73 86 -34 50
-45 53 -96 19 -24 -16 -52 -61 -52 -85 0 -24 40 -57 68 -57 44 0 55 14 55 64
0 26 4 43 7 39 15 -17 60 -143 60 -168 0 -56 -103 -115 -200 -115 -46 0 -53 7
-35 34 43 60 -19 121 -92 91 -19 -8 -36 -15 -37 -15 0 0 -2 14 -2 31 -1 21
-12 42 -37 67 -32 31 -43 36 -96 40 -62 4 -75 -4 -46 -28 42 -35 18 -90 -39
-90 -17 0 -81 11 -141 25 -168 38 -269 30 -393 -32 -181 -91 -172 -210 22
-302 44 -22 102 -42 127 -45 55 -8 125 6 148 29 15 15 14 18 -13 42 -22 19
-36 23 -58 19 -28 -6 -29 -5 -23 24 5 23 1 35 -19 55 -34 34 -53 31 -70 -10
-8 -19 -18 -35 -22 -35 -4 0 -22 9 -40 21 -77 47 -71 114 13 158 34 17 144 13
215 -9 110 -34 260 -154 294 -236 8 -18 14 -47 14 -64 0 -35 11 -38 51 -9 39
27 62 74 57 115 -4 37 10 45 33 18 21 -26 79 -59 133 -77 64 -22 222 -23 271
-3 51 22 44 43 -22 74 l-58 27 85 6 c121 9 200 46 200 94 0 12 -11 38 -24 58
l-24 35 49 -26 50 -25 27 20 c35 26 61 97 69 190 l6 76 19 -52 c11 -28 28 -56
39 -62 17 -9 22 -5 35 26 8 20 17 71 21 114 7 99 -18 191 -76 274 l-40 57 40
0 c51 0 91 21 117 62 25 39 21 48 -24 48 -52 0 -105 32 -171 104 -131 143
-179 334 -110 438 33 49 74 50 121 3 46 -45 47 -72 4 -83 -43 -11 -45 -26 -9
-62 23 -24 36 -29 56 -24 23 6 25 4 25 -29 0 -20 8 -45 19 -58 l20 -24 23 22
c18 18 23 37 26 91 4 59 0 79 -27 144 -46 110 -120 188 -178 188 -10 0 -32 -9
-50 -19z"/>
<path d="M5725 10951 c-44 -26 -79 -72 -117 -149 -29 -59 -33 -77 -33 -149 0
-73 3 -85 23 -105 l23 -23 20 24 c11 13 19 38 19 58 0 33 2 35 25 29 20 -5 33
0 56 24 36 36 34 51 -9 62 -43 11 -42 40 2 84 43 43 77 44 116 6 82 -83 33
-300 -103 -448 -66 -72 -119 -104 -171 -104 -45 0 -50 -10 -23 -47 30 -43 54
-56 110 -63 l48 -5 -41 -54 c-57 -76 -85 -171 -77 -270 12 -148 46 -183 89
-91 l24 51 12 -85 c13 -102 32 -149 68 -172 26 -18 28 -18 75 9 l48 26 -21
-35 c-55 -94 -2 -141 172 -153 l85 -6 -57 -27 c-35 -16 -58 -33 -58 -43 0 -50
205 -67 312 -26 32 12 80 37 107 56 l49 34 6 -52 c6 -40 14 -57 42 -84 41 -39
64 -42 64 -10 0 107 136 245 298 304 136 50 292 16 292 -64 0 -29 -72 -107
-92 -101 -7 2 -17 19 -23 36 -11 39 -36 42 -71 7 -20 -20 -24 -32 -19 -55 5
-25 4 -28 -13 -23 -26 6 -92 -23 -92 -41 0 -31 49 -50 124 -50 63 0 81 5 157
41 120 58 172 121 155 188 -9 34 -70 91 -130 120 -125 60 -244 68 -411 26
-101 -26 -147 -27 -168 -3 -23 25 -21 39 8 68 31 31 17 39 -56 32 -34 -4 -58
-13 -75 -29 -34 -31 -55 -74 -48 -93 8 -20 5 -20 -39 -1 -73 30 -135 -31 -92
-91 18 -27 11 -34 -35 -34 -97 0 -200 59 -200 115 0 25 45 151 60 168 3 4 7
-13 7 -39 0 -29 5 -49 14 -55 47 -30 116 15 104 69 -3 17 -14 37 -23 45 -16
14 -76 47 -85 47 -3 0 -24 -29 -47 -64 -43 -67 -86 -114 -62 -69 20 37 13 38
-25 2 -37 -35 -37 -23 1 20 l21 23 -25 -7 c-18 -5 -11 4 25 32 28 22 60 45 73
52 64 34 -32 148 -103 121 -35 -13 -52 -52 -37 -85 10 -22 18 -25 64 -25 l53
-1 -68 -30 c-38 -17 -83 -33 -101 -36 -67 -11 -126 80 -126 194 l0 53 37 -20
c70 -37 116 27 78 113 -6 14 -2 17 18 17 55 0 117 81 117 153 0 45 -8 50 -38
27 -48 -38 -85 -18 -84 47 1 21 11 79 23 128 42 169 24 311 -54 430 -35 54
-88 95 -121 95 -12 0 -35 -8 -51 -19z"/>
<path d="M409 9784 c-66 -20 -109 -62 -109 -108 l0 -36 -47 30 c-77 49 -109
34 -71 -36 l20 -37 -32 26 c-17 15 -38 27 -46 27 -22 0 -17 -43 11 -80 14 -19
25 -35 25 -36 0 -2 -19 -2 -41 -1 -95 3 -143 -126 -105 -288 17 -68 50 -105
97 -105 35 0 69 31 69 64 0 33 -40 77 -81 91 -46 16 -47 51 -2 77 47 28 102
10 163 -52 60 -62 90 -123 90 -183 0 -26 -2 -47 -3 -47 -2 0 -19 7 -36 16 -28
14 -37 14 -57 3 -33 -17 -41 -55 -21 -91 l16 -28 -35 0 c-50 0 -103 -51 -111
-106 -6 -49 7 -62 39 -40 32 23 55 20 74 -10 16 -24 16 -30 -6 -107 -33 -112
-39 -163 -29 -225 17 -105 98 -222 168 -242 70 -19 145 38 205 157 52 104 19
245 -45 187 -14 -13 -19 -27 -16 -47 3 -26 1 -28 -21 -24 -34 7 -67 -10 -81
-39 -10 -23 -8 -25 20 -31 46 -9 48 -31 6 -70 -42 -38 -73 -42 -110 -13 -85
67 -49 234 78 365 69 71 128 105 183 105 50 0 56 7 32 40 -25 35 -93 63 -131
55 -38 -9 -36 3 8 45 42 40 71 99 79 162 6 40 4 46 -21 62 -18 12 -38 16 -59
13 -30 -5 -33 -3 -49 41 -22 62 -81 160 -139 233 -27 32 -44 59 -39 59 6 0 13
-5 16 -10 24 -39 277 -180 322 -180 24 0 31 -14 13 -25 -5 -3 -10 -19 -10 -35
0 -39 41 -70 92 -70 69 0 223 63 258 105 21 25 27 17 32 -37 5 -45 11 -57 43
-85 49 -42 65 -42 65 0 1 53 33 109 103 174 88 82 194 134 288 141 87 6 131
-3 169 -34 42 -36 39 -67 -9 -115 -48 -48 -68 -50 -79 -7 -11 42 -35 46 -68
13 -21 -21 -25 -33 -20 -56 5 -27 4 -29 -18 -23 -31 7 -86 -21 -86 -45 0 -50
156 -61 252 -18 121 54 188 118 188 179 0 62 -118 150 -247 183 -81 21 -152
19 -278 -10 -131 -30 -166 -31 -188 -7 -22 25 -21 45 3 67 11 10 20 22 20 27
0 13 -88 9 -125 -6 -40 -17 -77 -71 -72 -103 2 -13 3 -23 2 -23 -1 0 -19 7
-39 15 -31 13 -40 13 -70 1 -45 -19 -54 -50 -27 -87 19 -26 20 -30 6 -35 -26
-10 -111 3 -162 26 -59 26 -129 93 -143 136 -15 44 8 97 50 119 40 21 60 13
60 -23 0 -40 41 -82 79 -82 38 0 61 23 61 61 0 45 -17 69 -63 90 -51 23 -189
25 -258 3z"/>
<path d="M8510 9782 c-20 -10 -43 -35 -54 -56 -18 -37 -18 -38 1 -64 29 -39
84 -42 112 -6 11 15 21 40 21 56 0 36 19 44 59 24 41 -22 65 -69 56 -113 -14
-76 -141 -162 -252 -171 -69 -5 -75 1 -47 43 22 33 10 64 -32 81 -30 12 -39
12 -69 0 -34 -14 -35 -14 -35 7 0 63 -72 117 -154 117 -51 0 -56 -8 -26 -35
39 -36 14 -85 -43 -85 -18 0 -82 11 -142 25 -168 38 -265 30 -388 -31 -115
-58 -159 -131 -117 -199 39 -63 171 -137 266 -149 69 -9 148 12 152 41 4 27
-48 58 -84 49 -22 -6 -23 -4 -18 23 5 23 1 35 -20 56 -33 33 -57 29 -68 -13
-10 -37 -19 -39 -63 -12 -45 28 -63 74 -44 109 26 46 73 63 169 59 73 -4 96
-9 160 -40 86 -42 201 -140 230 -199 11 -21 20 -54 20 -74 0 -45 19 -46 67 -2
32 30 37 41 41 90 l4 57 36 -32 c90 -79 276 -124 322 -78 21 21 27 74 10 85
-15 9 -2 25 20 25 28 0 191 85 259 135 34 25 63 45 66 45 2 0 -21 -33 -51 -72
-52 -70 -134 -217 -134 -242 0 -8 -11 -11 -29 -8 -15 2 -42 -3 -60 -12 -25
-13 -31 -23 -31 -49 1 -42 31 -109 82 -175 32 -43 36 -53 20 -48 -34 11 -103
-13 -134 -46 -15 -16 -25 -34 -22 -39 3 -5 24 -9 47 -9 120 0 289 -184 304
-331 6 -65 -13 -119 -51 -144 -32 -21 -66 -14 -108 24 -37 33 -33 55 11 64 36
8 39 19 11 47 -13 13 -33 20 -56 20 -26 0 -35 4 -31 13 3 7 -1 28 -9 46 -10
25 -19 32 -36 29 -52 -7 -64 -109 -23 -197 55 -118 135 -180 207 -161 51 15
119 93 149 172 31 82 30 155 -5 281 -26 92 -26 100 -12 123 19 28 51 31 77 8
37 -33 52 16 25 81 -16 38 -60 65 -105 65 l-30 0 16 28 c36 62 -15 119 -78 88
-17 -9 -34 -16 -36 -16 -1 0 -3 20 -3 45 0 124 154 280 242 246 57 -22 62 -68
9 -86 -41 -13 -81 -58 -81 -89 0 -12 10 -32 23 -44 54 -51 127 -9 146 84 33
168 -14 290 -110 287 -40 -2 -41 -2 -25 20 56 77 54 113 -4 84 -30 -16 -31
-16 -24 6 3 12 6 24 6 27 1 40 -23 40 -85 0 l-47 -30 0 31 c0 44 -15 65 -67
96 -41 24 -58 27 -157 31 -95 3 -116 1 -146 -16z"/>
<path d="M314 8191 c-59 -36 -116 -131 -132 -221 -11 -61 -5 -116 27 -229 22
-81 20 -116 -11 -132 -16 -9 -26 -7 -49 10 -16 12 -34 19 -39 16 -14 -9 -12
-50 4 -90 17 -40 85 -80 118 -69 20 6 20 6 3 -24 -38 -64 13 -121 80 -89 l35
17 0 -54 c0 -45 -6 -62 -39 -112 -46 -71 -74 -98 -123 -119 -50 -20 -70 -19
-102 6 -35 28 -32 63 6 67 60 7 104 81 74 127 -37 56 -101 37 -141 -41 -28
-54 -29 -203 -1 -253 29 -55 55 -72 99 -67 40 4 47 -4 21 -25 -8 -7 -22 -26
-31 -42 -13 -25 -13 -32 -1 -43 12 -12 19 -10 48 11 40 30 49 32 27 7 -10 -10
-17 -31 -17 -45 0 -37 35 -36 88 3 l42 30 0 -36 c0 -29 7 -44 34 -69 45 -42
111 -60 221 -59 130 1 175 29 175 107 0 38 -25 67 -58 67 -31 0 -73 -41 -81
-80 -4 -22 -13 -36 -24 -38 -25 -5 -64 23 -83 60 -22 42 -7 92 43 140 68 66
150 96 245 90 l27 -2 -20 -35 c-20 -33 -20 -37 -5 -59 21 -32 66 -42 105 -22
38 20 39 20 34 -6 -5 -31 29 -84 69 -104 34 -18 111 -25 124 -11 4 4 -2 17
-14 30 -28 30 -28 52 0 71 30 21 49 20 175 -10 179 -44 315 -26 443 56 139 89
110 194 -76 282 -69 32 -92 38 -147 38 -74 0 -115 -12 -124 -36 -10 -26 34
-57 73 -52 31 4 32 2 27 -27 -9 -55 75 -104 85 -50 2 11 9 26 14 32 22 28 108
-46 108 -92 0 -36 -45 -73 -105 -85 -100 -21 -239 23 -345 109 -96 79 -139
141 -140 204 0 42 0 42 -41 22 -41 -22 -69 -71 -69 -122 l0 -43 -47 36 c-27
20 -67 45 -91 55 -53 23 -154 40 -192 33 -41 -9 -66 -74 -38 -102 14 -14 16
-13 -52 -36 -71 -24 -168 -78 -247 -138 -35 -26 -63 -45 -63 -43 0 3 23 33 51
67 63 78 137 202 145 243 5 28 8 30 40 27 49 -6 84 20 84 61 0 43 -40 126 -85
176 l-37 41 36 0 c50 0 98 22 125 56 l22 28 -60 12 c-136 28 -281 188 -297
330 -11 90 43 175 99 158 62 -18 117 -94 69 -94 -10 0 -27 -6 -37 -14 -18 -13
-17 -14 9 -41 22 -22 34 -26 60 -22 30 5 33 3 28 -18 -6 -34 15 -67 41 -63 50
7 62 110 23 193 -68 142 -159 197 -242 146z"/>
<path d="M8734 8188 c-104 -81 -161 -228 -121 -308 26 -52 86 -24 75 35 -5 21
-2 23 28 18 26 -4 38 0 58 20 35 35 33 45 -9 53 -44 8 -46 33 -5 67 42 36 64
40 100 22 66 -34 77 -140 26 -252 -38 -83 -157 -197 -227 -217 -29 -9 -63 -16
-76 -16 l-24 0 22 -31 c27 -38 81 -62 126 -57 41 5 41 0 2 -38 -40 -37 -78
-112 -85 -168 -6 -39 -4 -46 19 -61 15 -9 40 -15 59 -13 31 3 34 0 55 -50 28
-70 77 -150 136 -223 53 -66 61 -86 20 -47 -71 66 -241 161 -310 174 -33 6
-42 17 -23 29 28 18 -2 92 -41 100 -64 14 -207 -31 -286 -92 l-43 -33 0 43 c0
51 -28 100 -69 122 -40 20 -41 20 -41 -21 0 -101 -132 -233 -295 -294 -205
-77 -390 40 -235 147 36 25 56 19 62 -20 4 -31 35 -33 65 -5 19 18 24 30 20
53 -5 29 -4 31 27 27 39 -5 83 26 73 52 -10 24 -54 38 -124 38 -51 0 -76 -7
-145 -40 -186 -88 -216 -194 -80 -280 131 -84 266 -102 445 -58 126 30 145 31
175 10 28 -19 28 -41 0 -71 -12 -13 -18 -26 -14 -30 13 -14 90 -7 124 11 40
20 74 73 69 104 -5 26 -1 26 33 7 37 -21 68 -18 96 10 27 27 26 54 -3 86 -12
15 -11 17 14 22 78 15 192 -30 252 -99 61 -69 64 -123 9 -169 -41 -35 -71 -30
-78 12 -7 41 -43 83 -74 83 -13 0 -34 -8 -46 -18 -43 -35 -21 -105 43 -139 41
-21 182 -24 250 -4 68 20 117 68 117 115 l0 36 42 -30 c67 -49 113 -37 84 22
-21 42 -20 43 10 19 15 -12 33 -21 40 -21 22 0 16 40 -11 76 -32 42 -31 45 6
37 67 -13 117 47 126 154 7 84 -11 175 -41 210 -41 47 -136 27 -136 -29 0 -49
30 -78 103 -102 25 -8 21 -42 -9 -65 -33 -26 -57 -26 -110 0 -85 41 -153 144
-154 231 l0 48 36 -17 c32 -16 38 -16 62 -2 32 17 40 60 19 93 -14 21 -14 22
17 22 61 0 116 61 116 128 0 35 -15 40 -48 16 -33 -25 -59 -18 -73 18 -7 18
-3 49 17 121 39 140 37 211 -10 306 -65 132 -157 181 -232 123z"/>
<path d="M2570 7250 c0 -161 -299 -360 -482 -321 -68 15 -108 45 -108 80 0 34
31 76 70 96 27 14 30 14 40 -4 5 -11 10 -27 10 -35 0 -25 38 -19 66 9 19 20
24 32 20 53 -6 26 -5 27 34 27 71 1 93 53 33 76 -134 52 -403 -77 -403 -192 0
-65 94 -141 224 -181 85 -26 206 -21 343 13 98 24 135 21 157 -13 8 -13 5 -24
-13 -48 -12 -18 -20 -35 -16 -38 12 -13 90 -5 121 11 38 20 67 62 67 99 0 15
1 28 2 28 1 0 16 -7 34 -16 32 -16 73 -13 98 8 17 14 16 59 -2 85 -14 19 -13
21 9 27 55 14 183 -28 211 -68 21 -29 19 -56 -10 -133 -29 -77 -49 -105 -39
-55 8 42 -17 82 -52 82 -29 0 -74 -41 -74 -68 0 -35 70 -102 107 -102 5 0 33
34 62 75 30 41 56 73 59 70 3 -3 0 -11 -6 -17 -22 -22 -12 -32 11 -11 40 36
53 38 24 4 -29 -35 -29 -52 0 -31 10 7 0 -4 -22 -25 -22 -20 -57 -46 -78 -56
-35 -19 -38 -23 -32 -52 17 -80 85 -141 131 -116 22 12 44 48 44 75 0 28 -47
64 -85 64 -57 0 -40 16 48 44 95 32 120 27 160 -26 32 -42 47 -97 47 -170 0
-62 -4 -66 -34 -43 -65 49 -124 -36 -82 -117 14 -27 14 -28 -11 -28 -74 0
-147 -127 -117 -204 5 -14 11 -12 36 9 35 30 40 30 60 8 27 -31 29 -59 13
-134 -50 -230 -51 -319 -5 -453 56 -165 146 -238 222 -180 66 49 137 197 145
304 6 74 -10 148 -34 157 -25 10 -53 -33 -53 -79 0 -38 -2 -40 -24 -34 -31 8
-75 -28 -78 -63 -3 -20 3 -26 30 -33 43 -11 43 -42 -1 -93 -40 -47 -80 -51
-113 -11 -62 72 -56 234 15 374 71 141 168 234 257 248 l44 6 -22 39 c-28 51
-62 72 -115 72 -24 0 -43 1 -43 3 0 1 15 25 34 53 60 89 79 153 80 266 1 108
-5 145 -30 169 -21 22 -32 13 -60 -48 l-24 -51 0 40 c0 66 -20 167 -41 211
-26 55 -58 69 -107 47 -20 -9 -41 -19 -47 -21 -5 -3 -2 4 8 15 24 28 36 74 26
101 -14 36 -87 62 -191 69 l-91 6 49 19 c101 40 103 69 6 89 -126 26 -278 -7
-360 -77 l-42 -36 0 37 c0 53 -23 99 -63 123 -44 28 -47 28 -47 -8z"/>
<path d="M6563 7259 c-40 -26 -67 -81 -60 -125 3 -19 3 -34 0 -34 -3 0 -21 14
-41 31 -20 18 -61 44 -92 58 -50 23 -67 26 -175 26 -126 0 -169 -11 -163 -43
2 -9 28 -29 58 -44 l55 -27 -55 -1 c-67 0 -160 -21 -194 -44 -37 -23 -42 -59
-17 -101 12 -20 21 -38 21 -40 0 -2 -16 5 -35 16 -83 49 -132 -22 -151 -218
l-6 -72 -27 52 c-14 28 -31 53 -38 55 -50 15 -68 -230 -24 -341 12 -31 38 -80
57 -108 19 -28 34 -52 34 -53 0 -1 -21 -3 -47 -4 -57 -2 -87 -21 -113 -71
l-19 -39 43 -6 c91 -14 183 -101 252 -238 80 -159 86 -311 14 -391 l-29 -32
-36 19 c-36 20 -75 71 -75 99 0 10 13 20 33 25 26 7 32 13 29 33 -3 34 -47 71
-76 63 -20 -5 -22 -1 -23 31 -1 40 -28 88 -46 83 -7 -3 -20 -20 -29 -39 -65
-127 69 -443 187 -443 102 0 218 252 200 434 -4 36 -17 115 -30 177 -24 115
-23 145 3 176 20 22 25 22 60 -8 35 -29 42 -25 42 29 -1 83 -63 166 -125 166
-25 0 -25 1 -11 22 9 12 16 38 16 58 0 67 -49 101 -96 65 -30 -23 -34 -19 -34
45 0 102 47 196 107 214 23 7 183 -41 183 -55 0 -5 -16 -9 -35 -9 -39 0 -85
-36 -85 -65 0 -37 40 -84 71 -85 39 0 89 61 103 126 7 29 4 33 -36 57 -75 44
-151 111 -87 77 27 -15 24 -1 -8 33 -30 32 -13 28 25 -6 24 -22 28 -17 11 16
-15 31 33 -26 73 -85 17 -27 35 -48 40 -48 37 0 108 66 108 100 0 31 -39 70
-70 70 -36 0 -52 -21 -54 -70 -1 -49 -6 -43 -40 42 -33 83 -33 112 -1 144 38
37 87 54 160 54 l66 0 -15 -22 c-19 -27 -21 -72 -3 -86 25 -21 66 -24 98 -8
40 20 43 20 35 0 -9 -22 21 -80 51 -99 37 -25 83 -36 120 -29 l33 6 -26 30
c-30 37 -28 57 8 77 28 16 17 18 208 -24 36 -8 97 -15 136 -15 167 0 354 105
354 199 0 61 -74 130 -191 177 -92 38 -229 31 -246 -12 -9 -25 35 -55 75 -51
31 3 32 2 27 -25 -5 -21 -1 -33 19 -53 30 -30 66 -34 66 -7 0 10 6 27 14 37
13 18 14 18 42 1 105 -67 78 -159 -52 -181 -176 -29 -474 174 -474 323 0 37
-4 38 -47 11z"/>
<path d="M3358 5262 c-62 -41 -122 -159 -144 -284 -16 -93 -13 -136 22 -308
25 -126 23 -163 -14 -188 -19 -13 -23 -12 -47 14 -22 23 -28 26 -35 14 -16
-24 -11 -82 10 -127 22 -49 73 -86 108 -78 22 5 22 5 7 -24 -44 -87 16 -173
86 -122 l29 22 0 -65 c0 -193 -143 -308 -260 -210 -41 35 -39 54 5 54 51 0 90
40 81 83 -7 36 -38 67 -68 67 -48 0 -108 -96 -108 -173 0 -67 52 -141 121
-172 46 -21 48 -28 14 -43 -38 -18 -33 -50 12 -69 l37 -15 -29 -12 c-17 -7
-37 -21 -45 -31 -13 -15 -12 -19 5 -31 10 -8 25 -14 32 -14 23 0 14 -18 -15
-28 -68 -23 -131 -109 -132 -177 0 -78 59 -175 108 -175 30 0 61 31 68 67 9
43 -30 83 -81 83 -44 0 -46 19 -5 54 35 29 87 41 127 31 74 -18 133 -126 133
-241 l0 -65 -26 20 c-34 27 -58 27 -84 -1 -24 -26 -27 -85 -5 -114 20 -27 18
-35 -7 -29 -58 14 -127 -75 -128 -162 0 -53 14 -62 46 -28 23 25 27 26 46 13
37 -25 39 -62 14 -188 -35 -172 -38 -215 -22 -308 25 -143 105 -281 173 -298
59 -15 119 43 181 174 35 72 37 83 37 174 0 86 -2 100 -21 119 l-21 21 -22
-24 c-17 -17 -22 -33 -19 -63 l3 -40 -37 3 c-33 4 -39 0 -57 -29 -27 -44 -27
-46 14 -63 47 -20 46 -48 -4 -97 -46 -46 -63 -48 -101 -11 -98 99 -43 357 113
527 67 74 101 95 150 95 44 0 49 7 32 40 -26 50 -72 80 -121 80 -24 0 -44 2
-44 5 0 3 16 27 36 54 48 68 75 150 81 246 6 102 -11 160 -47 160 -16 0 -31
-11 -46 -32 l-21 -32 -7 53 c-14 125 -76 230 -151 258 -35 12 -47 28 -22 28 7
0 33 13 58 28 59 38 96 107 111 210 l12 79 21 -31 c26 -39 55 -44 74 -14 22
35 26 153 7 225 -17 69 -66 172 -90 192 -26 22 -19 31 24 31 23 0 53 6 68 14
28 15 76 88 65 100 -3 3 -22 6 -42 6 -46 1 -72 15 -135 78 -160 159 -225 429
-130 542 34 40 56 38 104 -10 50 -50 52 -76 5 -96 -41 -17 -41 -19 -14 -63 18
-29 24 -33 57 -29 l37 3 -3 -40 c-5 -52 26 -97 51 -76 27 22 40 80 35 155 -8
112 -91 277 -159 312 -37 18 -58 18 -91 -4z"/>
<path d="M5724 5260 c-37 -24 -74 -75 -105 -145 -12 -27 -25 -58 -30 -67 -28
-55 -21 -200 10 -239 l18 -22 22 22 c18 18 22 32 19 64 l-3 42 37 -3 c33 -4
39 0 57 29 27 44 27 46 -14 63 -46 20 -45 44 3 96 45 47 60 49 99 16 105 -89
49 -358 -109 -531 -68 -74 -101 -95 -151 -95 -44 0 -49 -7 -32 -40 26 -50 72
-80 121 -80 24 0 44 -2 44 -5 0 -3 -15 -26 -34 -52 -74 -105 -107 -276 -71
-368 14 -37 21 -46 38 -43 12 2 31 17 42 34 l21 31 12 -73 c19 -119 86 -222
157 -240 34 -8 31 -18 -10 -33 -80 -28 -136 -123 -151 -249 l-6 -61 -22 32
c-12 18 -31 33 -42 35 -35 5 -49 -39 -48 -147 1 -109 21 -175 80 -262 19 -28
34 -53 34 -55 0 -2 -18 -4 -40 -4 -23 0 -53 -6 -68 -14 -28 -15 -76 -88 -65
-100 3 -3 23 -6 43 -6 101 0 248 -180 295 -361 23 -85 16 -181 -15 -237 -13
-23 -32 -44 -41 -47 -38 -12 -119 56 -119 100 0 9 15 22 35 31 41 17 41 19 14
63 -18 30 -24 33 -59 29 -33 -3 -37 -1 -30 13 11 20 -5 82 -25 99 -20 17 -40
0 -56 -47 -13 -40 -8 -167 8 -198 6 -11 22 -47 37 -79 50 -109 113 -166 169
-152 57 14 126 116 163 242 23 76 23 214 0 314 -39 172 -39 211 2 238 19 13
23 11 47 -12 33 -33 45 -26 45 27 -1 87 -70 176 -128 162 -22 -5 -22 -5 -7 24
21 42 19 93 -5 119 -26 27 -44 28 -81 1 l-29 -20 0 59 c0 199 141 316 260 215
41 -34 39 -53 -5 -53 -25 0 -44 -8 -60 -25 -29 -28 -31 -45 -10 -85 33 -63 99
-44 143 40 27 54 28 111 3 166 -20 43 -82 101 -118 110 -31 8 -29 17 8 31 39
15 36 43 -8 63 -34 15 -43 30 -20 30 8 0 24 12 38 26 24 25 24 26 5 40 -11 8
-26 14 -33 14 -23 0 -14 15 17 29 112 49 159 169 108 271 -44 84 -110 103
-143 40 -21 -40 -19 -57 10 -85 16 -17 35 -25 60 -25 44 0 46 -19 5 -54 -35
-29 -87 -41 -127 -31 -74 18 -133 126 -133 241 l0 65 26 -20 c34 -27 58 -27
84 1 24 26 26 77 5 119 -15 29 -15 29 7 24 58 -14 127 75 128 162 0 53 -12 60
-45 27 -24 -23 -28 -25 -47 -12 -41 27 -41 66 -2 238 23 100 23 238 0 315 -33
109 -91 206 -138 231 -36 19 -57 17 -94 -6z"/>
<path d="M3374 1940 c-26 -10 -79 -70 -103 -118 -10 -20 -29 -71 -42 -112 -31
-101 -30 -200 5 -364 27 -129 27 -156 -2 -188 -20 -24 -28 -23 -59 8 -30 30
-43 20 -43 -36 1 -79 71 -167 128 -157 26 5 26 7 7 -29 -21 -40 -19 -86 5
-112 24 -26 48 -28 76 -7 30 23 34 19 34 -45 0 -147 -109 -291 -207 -272 -31
6 -83 67 -83 97 0 22 4 25 35 25 39 0 85 36 85 65 0 31 -30 75 -56 81 -31 8
-70 -18 -97 -64 -27 -46 -33 -162 -13 -241 28 -108 64 -151 127 -153 28 -1 29
-2 14 -22 -32 -44 -55 -95 -49 -110 8 -21 44 -20 74 1 l24 17 -22 -31 c-22
-31 -28 -54 -16 -66 8 -8 62 19 90 45 l21 19 -5 -49 c-4 -45 -2 -50 27 -75 55
-46 145 -59 253 -36 64 14 108 54 108 98 0 37 -31 71 -64 71 -36 0 -84 -45
-92 -86 -5 -27 -11 -34 -30 -34 -47 0 -70 79 -40 138 20 39 110 120 151 138
33 13 125 20 125 9 0 -4 -7 -19 -15 -35 -31 -60 27 -111 87 -77 l28 16 0 -35
c0 -50 51 -103 106 -111 48 -6 64 9 40 36 -23 26 -20 58 8 77 23 14 31 14 118
-9 133 -36 159 -39 219 -26 116 24 221 104 235 176 12 66 -43 137 -151 192
-64 33 -118 39 -174 20 -58 -20 -28 -88 34 -77 21 5 23 2 18 -28 -4 -26 0 -38
21 -59 30 -30 42 -27 51 15 8 38 28 38 66 1 39 -39 40 -92 3 -126 -73 -67
-221 -32 -342 80 -67 62 -107 130 -117 197 l-7 48 -28 -20 c-35 -25 -63 -93
-55 -131 9 -38 -3 -36 -45 8 -39 40 -96 69 -156 78 -51 9 -79 -18 -79 -75 0
-35 -2 -39 -36 -49 -45 -14 -197 -109 -269 -169 -33 -27 -44 -34 -29 -16 74
83 181 278 194 355 7 39 8 40 22 20 8 -13 25 -21 41 -21 52 0 57 11 57 117 -1
111 -21 175 -81 264 -19 28 -34 53 -34 55 0 2 18 4 40 4 56 0 96 23 120 70
l20 39 -45 7 c-62 9 -129 56 -182 128 -138 187 -173 398 -84 498 27 30 30 31
59 19 36 -15 82 -71 82 -99 0 -13 -10 -22 -32 -28 -40 -12 -43 -21 -18 -61 16
-27 26 -33 55 -33 34 0 35 -1 35 -39 0 -50 30 -92 53 -72 51 42 48 186 -6 303
-44 96 -78 142 -122 162 -37 18 -41 18 -71 6z"/>
<path d="M5733 1934 c-39 -20 -94 -98 -129 -184 -44 -110 -43 -244 3 -281 25
-21 56 24 51 76 l-3 40 35 -3 c40 -4 68 18 72 58 2 19 -3 26 -29 33 -21 6 -33
16 -33 27 0 26 43 84 73 98 24 12 32 11 53 -3 111 -73 70 -341 -79 -523 -57
-69 -103 -101 -166 -115 l-52 -12 27 -42 c32 -48 59 -63 114 -63 22 0 40 -2
40 -5 0 -3 -15 -28 -34 -55 -58 -85 -79 -152 -80 -263 -1 -106 4 -117 56 -117
16 0 33 8 41 21 14 19 15 18 22 -18 10 -57 75 -187 137 -279 l56 -81 -80 60
c-79 59 -217 137 -243 137 -10 0 -12 9 -8 34 4 28 1 39 -20 60 -29 29 -48 32
-98 14 -39 -13 -149 -87 -149 -99 0 -5 -5 -9 -11 -9 -5 0 -7 5 -4 10 3 6 3 31
-1 58 -5 36 -15 55 -43 81 l-36 34 -12 -62 c-35 -172 -265 -338 -405 -292 -82
27 -101 85 -47 146 38 43 58 44 66 5 8 -42 19 -45 49 -15 21 21 25 33 21 59
-5 31 -4 32 23 28 19 -3 35 3 50 18 l22 22 -20 21 c-14 14 -38 22 -76 25 -45
4 -64 0 -110 -23 -114 -56 -176 -135 -161 -206 15 -66 125 -145 234 -168 60
-13 86 -10 219 26 87 23 95 23 118 9 28 -19 31 -51 8 -77 -33 -37 16 -52 81
-25 38 16 65 60 65 105 l0 30 28 -16 c60 -35 118 18 87 80 -8 16 -15 32 -15
34 0 1 19 3 43 3 109 0 247 -118 247 -210 0 -77 -62 -108 -85 -41 -13 41 -58
81 -89 81 -12 0 -32 -10 -44 -23 -50 -54 -8 -126 86 -146 108 -23 198 -10 253
36 28 24 31 31 27 73 l-5 46 50 -33 c27 -18 53 -30 58 -27 14 8 11 37 -6 61
-14 21 -14 21 14 10 67 -25 77 20 21 99 l-28 40 36 1 c76 2 127 107 127 263 0
79 -4 102 -22 136 -24 45 -68 70 -102 59 -22 -7 -51 -52 -51 -80 0 -29 46 -65
85 -65 30 0 35 -3 35 -24 0 -30 -44 -84 -78 -97 -90 -34 -212 123 -212 271 0
64 4 68 34 45 65 -49 124 41 82 124 -14 27 -14 28 7 24 58 -10 126 78 127 163
0 54 -7 58 -42 29 -35 -30 -40 -30 -60 -7 -27 30 -27 59 -1 184 31 150 34 277
9 362 -37 126 -107 227 -166 240 -14 4 -39 -1 -57 -10z"/>
</g>
</svg>
